{
  "accessors": [
    {
      "bufferView": 2,
      "componentType": 5126,
      "count": 307,
      "max": [
        -269.437255859375,
        64.0,
        12.0
      ],
      "min": [
        -293.69305419921875,
        -3.814697265625e-06,
        -12.255804061889648
      ],
      "type": "VEC3"
    },
    {
      "bufferView": 2,
      "byteOffset": 3684,
      "componentType": 5126,
      "count": 307,
      "max": [
        1.0,
        1.0,
        1.0
      ],
      "min": [
        -1.0,
        -1.0,
        -1.0
      ],
      "type": "VEC3"
    },
    {
      "bufferView": 3,
      "componentType": 5126,
      "count": 307,
      "max": [
        0.9998680949211121,
        0.9978445172309875,
        0.9999202489852905,
        1.0
      ],
      "min": [
        -0.9994446039199829,
        -1.0,
        -0.8976166248321533,
        1.0
      ],
      "type": "VEC4"
    },
    {
      "bufferView": 1,
      "componentType": 5126,
      "count": 307,
      "max": [
        0.959898829460144,
        0.9385316371917725
      ],
      "min": [
        0.06874296069145203,
        0.5695410370826721
      ],
      "type": "VEC2"
    },
    {
      "bufferView": 0,
      "componentType": 5125,
      "count": 720,
      "type": "SCALAR"
    },
    {
      "bufferView": 2,
      "byteOffset": 7368,
      "componentType": 5126,
      "count": 307,
      "max": [
        142.18313598632813,
        64.0,
        12.0
      ],
      "min": [
        117.92733764648438,
        -3.814697265625e-06,
        -12.255804061889648
      ],
      "type": "VEC3"
    },
    {
      "bufferView": 2,
      "byteOffset": 11052,
      "componentType": 5126,
      "count": 307,
      "max": [
        1.0,
        1.0,
        1.0
      ],
      "min": [
        -1.0,
        -1.0,
        -1.0
      ],
      "type": "VEC3"
    },
    {
      "bufferView": 3,
      "byteOffset": 4912,
      "componentType": 5126,
      "count": 307,
      "max": [
        0.9998680949211121,
        0.9978445768356323,
        0.9999202489852905,
        1.0
      ],
      "min": [
        -0.9994446635246277,
        -1.0,
        -0.8976168036460876,
        1.0
      ],
      "type": "VEC4"
    },
    {
      "bufferView": 1,
      "byteOffset": 2456,
      "componentType": 5126,
      "count": 307,
      "max": [
        0.959898829460144,
        0.9385316371917725
      ],
      "min": [
        0.06874296069145203,
        0.5695410370826721
      ],
      "type": "VEC2"
    },
    {
      "bufferView": 0,
      "byteOffset": 2880,
      "componentType": 5125,
      "count": 720,
      "type": "SCALAR"
    },
    {
      "bufferView": 2,
      "byteOffset": 14736,
      "componentType": 5126,
      "count": 640,
      "max": [
        109.7086410522461,
        25.314382553100586,
        2.695495128631592
      ],
      "min": [
        -85.70864868164063,
        19.017860412597656,
        -2.8161535263061523
      ],
      "type": "VEC3"
    },
    {
      "bufferView": 2,
      "byteOffset": 22416,
      "componentType": 5126,
      "count": 640,
      "max": [
        0.620991587638855,
        0.6351420283317566,
        0.9904425144195557
      ],
      "min": [
        -0.6209923624992371,
        -0.6351410150527954,
        0.7508101463317871
      ],
      "type": "VEC3"
    },
    {
      "bufferView": 3,
      "byteOffset": 9824,
      "componentType": 5126,
      "count": 640,
      "max": [
        0.872623860836029,
        0.9287257194519043,
        0.6363887786865234,
        1.0
      ],
      "min": [
        -0.9906998872756958,
        -0.06778591126203537,
        -0.6347448825836182,
        1.0
      ],
      "type": "VEC4"
    },
    {
      "bufferView": 1,
      "byteOffset": 4912,
      "componentType": 5126,
      "count": 640,
      "max": [
        0.8413940668106079,
        0.8731852769851685
      ],
      "min": [
        0.33911019563674927,
        0.12328454852104187
      ],
      "type": "VEC2"
    },
    {
      "bufferView": 0,
      "byteOffset": 5760,
      "componentType": 5125,
      "count": 2304,
      "type": "SCALAR"
    },
    {
      "bufferView": 2,
      "byteOffset": 30096,
      "componentType": 5126,
      "count": 13216,
      "max": [
        120.50435638427734,
        68.54646301269531,
        1.0
      ],
      "min": [
        -96.00001525878906,
        -0.25,
        -1.0
      ],
      "type": "VEC3"
    },
    {
      "bufferView": 2,
      "byteOffset": 188688,
      "componentType": 5126,
      "count": 13216,
      "max": [
        1.0,
        1.0,
        0.9999945759773254
      ],
      "min": [
        -1.0,
        -1.0,
        -0.9999980330467224
      ],
      "type": "VEC3"
    },
    {
      "bufferView": 3,
      "byteOffset": 20064,
      "componentType": 5126,
      "count": 13216,
      "max": [
        0.9999996423721313,
        0.9999954700469971,
        1.0,
        1.0
      ],
      "min": [
        -1.0,
        -0.9999473690986633,
        -1.0,
        -1.0
      ],
      "type": "VEC4"
    },
    {
      "bufferView": 1,
      "byteOffset": 10032,
      "componentType": 5126,
      "count": 13216,
      "max": [
        0.9362070560455322,
        0.9709175825119019
      ],
      "min": [
        0.13725368678569794,
        0.019442439079284668
      ],
      "type": "VEC2"
    },
    {
      "bufferView": 0,
      "byteOffset": 14976,
      "componentType": 5125,
      "count": 44424,
      "type": "SCALAR"
    }
  ],
  "asset": {
    "extras": {
      "author": "cabbageislettuce (https://sketchfab.com/cabbageislettuce)",
      "license": "CC-BY-4.0 (http://creativecommons.org/licenses/by/4.0/)",
      "source": "https://sketchfab.com/3d-models/gate-d8d30ae395844a2faa823e182fa354cc",
      "title": "gate"
    },
    "generator": "Sketchfab-14.48.0",
    "version": "2.0"
  },
  "bufferViews": [
    {
      "buffer": 0,
      "byteLength": 192672,
      "name": "floatBufferViews",
      "target": 34963
    },
    {
      "buffer": 0,
      "byteLength": 115760,
      "byteOffset": 192672,
      "byteStride": 8,
      "name": "floatBufferViews",
      "target": 34962
    },
    {
      "buffer": 0,
      "byteLength": 347280,
      "byteOffset": 308432,
      "byteStride": 12,
      "name": "floatBufferViews",
      "target": 34962
    },
    {
      "buffer": 0,
      "byteLength": 231520,
      "byteOffset": 655712,
      "byteStride": 16,
      "name": "floatBufferViews",
      "target": 34962
    }
  ],
  "buffers": [
    {
      "byteLength": 887232,
      "uri": "scene.bin"
    }
  ],
  "images": [
    {
      "uri": "textures/blinn2_baseColor.png"
    },
    {
      "uri": "textures/blinn2_metallicRoughness.png"
    },
    {
      "uri": "textures/blinn2_normal.png"
    },
    {
      "uri": "textures/blinn1_metallicRoughness.png"
    },
    {
      "uri": "textures/lambert1_baseColor.png"
    },
    {
      "uri": "textures/lambert1_metallicRoughness.png"
    },
    {
      "uri": "textures/lambert1_normal.png"
    }
  ],
  "materials": [
    {
      "doubleSided": true,
      "name": "blinn2",
      "normalTexture": {
        "index": 2
      },
      "pbrMetallicRoughness": {
        "baseColorTexture": {
          "index": 0
        },
        "metallicFactor": 0.0,
        "metallicRoughnessTexture": {
          "index": 1
        }
      }
    },
    {
      "doubleSided": true,
      "name": "blinn1",
      "normalTexture": {
        "index": 2
      },
      "pbrMetallicRoughness": {
        "baseColorTexture": {
          "index": 0
        },
        "metallicRoughnessTexture": {
          "index": 3
        }
      }
    },
    {
      "doubleSided": true,
      "name": "lambert1",
      "normalTexture": {
        "index": 6
      },
      "pbrMetallicRoughness": {
        "baseColorTexture": {
          "index": 4
        },
        "metallicRoughnessTexture": {
          "index": 5
        }
      }
    },
    {
      "doubleSided": true,
      "name": "phong1",
      "normalTexture": {
        "index": 6
      },
      "pbrMetallicRoughness": {
        "baseColorTexture": {
          "index": 4
        },
        "metallicRoughnessTexture": {
          "index": 5
        }
      }
    }
  ],
  "meshes": [
    {
      "name": "polySurface465_blinn2_0",
      "primitives": [
        {
          "attributes": {
            "NORMAL": 1,
            "POSITION": 0,
            "TANGENT": 2,
            "TEXCOORD_0": 3
          },
          "indices": 4,
          "material": 0,
          "mode": 4
        }
      ]
    },
    {
      "name": "polySurface466_blinn1_0",
      "primitives": [
        {
          "attributes": {
            "NORMAL": 6,
            "POSITION": 5,
            "TANGENT": 7,
            "TEXCOORD_0": 8
          },
          "indices": 9,
          "material": 1,
          "mode": 4
        }
      ]
    },
    {
      "name": "polySurface633_lambert1_0",
      "primitives": [
        {
          "attributes": {
            "NORMAL": 11,
            "POSITION": 10,
            "TANGENT": 12,
            "TEXCOORD_0": 13
          },
          "indices": 14,
          "material": 2,
          "mode": 4
        }
      ]
    },
    {
      "name": "polySurface635_phong1_0",
      "primitives": [
        {
          "attributes": {
            "NORMAL": 16,
            "POSITION": 15,
            "TANGENT": 17,
            "TEXCOORD_0": 18
          },
          "indices": 19,
          "material": 3,
          "mode": 4
        }
      ]
    }
  ],
  "nodes": [
    {
      "children": [
        1
      ],
      "matrix": [
        1.0,
        0.0,
        0.0,
        0.0,
        0.0,
        2.220446049250313e-16,
        -1.0,
        0.0,
        0.0,
        1.0,
        2.220446049250313e-16,
        0.0,
        0.0,
        0.0,
        0.0,
        1.0
      ],
      "name": "Sketchfab_model"
    },
    {
      "children": [
        2
      ],
      "matrix": [
        0.009999999776482582,
        0.0,
        0.0,
        0.0,
        0.0,
        0.0,
        0.009999999776482582,
        0.0,
        0.0,
        -0.009999999776482582,
        0.0,
        0.0,
        0.0,
        0.0,
        0.0,
        1.0
      ],
      "name": "e3c9bdbfe5474b029aad26cd2a3c6ff9.fbx"
    },
    {
      "children": [
        3,
        8,
        10
      ],
      "name": "RootNode"
    },
    {
      "children": [
        4,
        6
      ],
      "name": "polySurface278"
    },
    {
      "children": [
        5
      ],
      "matrix": [
        1.0,
        0.0,
        0.0,
        0.0,
        0.0,
        1.0,
        0.0,
        0.0,
        0.0,
        0.0,
        1.0,
        0.0,
        176.8380889892578,
        0.0,
        0.0,
        1.0
      ],
      "name": "polySurface465"
    },
    {
      "mesh": 0,
      "name": "polySurface465_blinn2_0"
    },
    {
      "children": [
        7
      ],
      "name": "polySurface466"
    },
    {
      "mesh": 1,
      "name": "polySurface466_blinn1_0"
    },
    {
      "children": [
        9
      ],
      "name": "polySurface633"
    },
    {
      "mesh": 2,
      "name": "polySurface633_lambert1_0"
    },
    {
      "children": [
        11
      ],
      "name": "polySurface635"
    },
    {
      "mesh": 3,
      "name": "polySurface635_phong1_0"
    }
  ],
  "samplers": [
    {
      "magFilter": 9729,
      "minFilter": 9987,
      "wrapS": 10497,
      "wrapT": 10497
    }
  ],
  "scene": 0,
  "scenes": [
    {
      "name": "Sketchfab_Scene",
      "nodes": [
        0
      ]
    }
  ],
  "textures": [
    {
      "sampler": 0,
      "source": 0
    },
    {
      "sampler": 0,
      "source": 1
    },
    {
      "sampler": 0,
      "source": 2
    },
    {
      "sampler": 0,
      "source": 3
    },
    {
      "sampler": 0,
      "source": 4
    },
    {
      "sampler": 0,
      "source": 5
    },
    {
      "sampler": 0,
      "source": 6
    }
  ]
}
